<svg width="40" height="40" viewBox="0 0 40 40" fill="none" xmlns="http://www.w3.org/2000/svg">
<path d="M16.6666 28.25H10.3499C4.73325 28.25 3.33325 26.85 3.33325 21.2333V11.2333C3.33325 5.61667 4.73325 4.21667 10.3499 4.21667H27.8999C33.5166 4.21667 34.9166 5.61667 34.9166 11.2333" stroke="#D1292E" stroke-width="3" stroke-linecap="round" stroke-linejoin="round"/>
<path d="M16.6667 35.7833V28.25" stroke="#D1292E" stroke-width="3" stroke-linecap="round" stroke-linejoin="round"/>
<path d="M3.33325 21.5833H16.6666" stroke="#D1292E" stroke-width="3" stroke-linecap="round" stroke-linejoin="round"/>
<path d="M11.2334 35.7833H16.6667" stroke="#D1292E" stroke-width="3" stroke-linecap="round" stroke-linejoin="round"/>
<path d="M36.6666 21.3333V30.85C36.6666 34.8 35.6833 35.7833 31.7333 35.7833H25.8166C21.8666 35.7833 20.8833 34.8 20.8833 30.85V21.3333C20.8833 17.3833 21.8666 16.4 25.8166 16.4H31.7333C35.6833 16.4 36.6666 17.3833 36.6666 21.3333Z" stroke="#D1292E" stroke-width="3" stroke-linecap="round" stroke-linejoin="round"/>
<path d="M28.7409 30.4167H28.7559" stroke="#D1292E" stroke-width="3" stroke-linecap="round" stroke-linejoin="round"/>
</svg>
