<svg width="60" height="60" viewBox="0 0 60 60" fill="none" xmlns="http://www.w3.org/2000/svg">
<g clip-path="url(#clip0_0_164)">
<path d="M34.675 31.175L36.275 32.7749L41.075 27.975" stroke="#D1292E" stroke-width="2" stroke-linecap="round" stroke-linejoin="round"/>
<path d="M52.5 24.725C52.35 27.125 51.675 32.75 49.025 36.6C48.075 37.95 46.925 39.2249 45.75 40.3749C45.275 40.8499 44.7749 41.2999 44.2999 41.7249C42.0999 43.6499 39.925 45.0499 38.775 45.7749C38.225 46.1249 37.55 46.1249 37.025 45.7749C34.975 44.4499 29.7249 40.8499 26.6499 36.4499C24.0249 32.6499 23.4 27.0999 23.25 24.6999C23.2 24.0249 23.6251 23.3999 24.2751 23.1249C29.7501 20.8249 34.65 16.725 36.75 14.8C37.4 14.25 38.3501 14.25 38.9501 14.8C40.0501 15.825 41.925 17.3999 44.25 19.0499C44.725 19.3749 45.2251 19.6999 45.7001 20.0499C47.4501 21.1999 49.4 22.2999 51.425 23.1249C52.1 23.3999 52.5 24.025 52.45 24.725H52.5Z" stroke="#D1292E" stroke-width="2" stroke-linecap="round" stroke-linejoin="round"/>
<path d="M23.25 24.7C23.375 27.075 24.0249 32.65 26.6499 36.45C29.6999 40.85 34.975 44.45 37.025 45.775C37.575 46.125 38.25 46.125 38.775 45.775C39.925 45.05 42.0749 43.65 44.2999 41.725C44.7999 41.3 45.3 40.85 45.75 40.375V43.475C45.75 48.425 41.7 52.475 36.75 52.475H16.4999C11.5499 52.475 7.5 48.425 7.5 43.475V16.475C7.5 11.525 11.5499 7.47498 16.4999 7.47498H36.75C41.7 7.47498 45.75 11.525 45.75 16.475V20.025C45.25 19.7 44.7499 19.375 44.2999 19.025C41.9499 17.375 40.0999 15.775 38.9999 14.775C38.3999 14.225 37.4499 14.225 36.7999 14.775C34.6749 16.7 29.775 20.8 24.325 23.1C23.675 23.375 23.25 24 23.3 24.675L23.25 24.7Z" stroke="#D1292E" stroke-width="2" stroke-linecap="round" stroke-linejoin="round"/>
</g>
<defs>
<clipPath id="clip0_0_164">
<rect width="60" height="60" fill="white"/>
</clipPath>
</defs>
</svg>
