<svg width="60" height="60" viewBox="0 0 60 60" fill="none" xmlns="http://www.w3.org/2000/svg">
<g clip-path="url(#clip0_0_154)">
<path d="M32.525 39.1L30.8 39.8249C30.55 39.9249 30.275 39.9749 30.025 39.9749C29.75 39.9749 29.475 39.9249 29.225 39.8249L27.5 39.1C25.775 38.375 24.25 37.175 23.175 35.625C22.1 34.075 21.425 32.275 21.3 30.4L20.925 25.225C20.925 24.8 21 24.3749 21.2 24.0249C21.425 23.6749 21.75 23.375 22.125 23.225L28.85 20.2749C29.6 19.9749 30.45 19.9749 31.225 20.2749L37.8 23.2C38.175 23.375 38.5 23.6749 38.725 24.0249C38.95 24.3999 39.025 24.8 39 25.225L38.625 30.4C38.5 32.275 37.875 34.0749 36.8 35.5999C35.725 37.1249 34.25 38.35 32.525 39.1V39.1Z" stroke="#D1292E" stroke-width="2" stroke-miterlimit="10" stroke-linecap="round"/>
<path d="M51.95 25C52.3 26.65 52.5 28.325 52.5 30C52.5 35.975 50.125 41.7 45.925 45.9C41.7 50.125 35.975 52.5 30 52.5C25.75 52.5 21.6 51.3 18.025 49.025" stroke="#D1292E" stroke-width="2" stroke-miterlimit="10" stroke-linecap="round"/>
<path d="M8.07499 35.025C7.69999 33.375 7.5 31.7 7.5 30C7.5 24.025 9.875 18.325 14.1 14.1C18.325 9.87504 24.025 7.5 30 7.5C34.2 7.5 38.3 8.67496 41.85 10.9" stroke="#D1292E" stroke-width="2" stroke-miterlimit="10" stroke-linecap="round"/>
<path d="M45.925 19.075C48.7 19.075 50.925 16.85 50.925 14.075C50.925 11.3 48.7 9.07495 45.925 9.07495C43.15 9.07495 40.925 11.3 40.925 14.075C40.925 16.85 43.15 19.075 45.925 19.075Z" stroke="#D1292E" stroke-width="2" stroke-miterlimit="10" stroke-linecap="round"/>
<path d="M14.075 50.925C16.85 50.925 19.075 48.7 19.075 45.925C19.075 43.15 16.85 40.925 14.075 40.925C11.3 40.925 9.07501 43.15 9.07501 45.925C9.07501 48.7 11.3 50.925 14.075 50.925Z" stroke="#D1292E" stroke-width="2" stroke-miterlimit="10" stroke-linecap="round"/>
</g>
<defs>
<clipPath id="clip0_0_154">
<rect width="60" height="60" fill="white"/>
</clipPath>
</defs>
</svg>
