<svg width="60" height="60" viewBox="0 0 60 60" fill="none" xmlns="http://www.w3.org/2000/svg">
<g clip-path="url(#clip0_0_168)">
<path d="M30.0251 35.9999C33.3751 35.9999 36.1 33.275 36.1 29.925C36.1 26.575 33.3751 23.85 30.0251 23.85C26.6751 23.85 23.9501 26.575 23.9501 29.925C23.9501 33.275 26.6751 35.9999 30.0251 35.9999Z" stroke="#D1292E" stroke-width="2" stroke-miterlimit="10"/>
<path d="M35.3251 11.625C35.7751 13.225 36.825 14.6 38.25 15.45C39.675 16.3 41.35 16.55 42.95 16.15C44.125 15.8 45.4 15.85 46.55 16.325C47.7 16.8 48.6501 17.65 49.2751 18.725C49.9001 19.8 50.125 21.075 49.95 22.325C49.775 23.575 49.175 24.7 48.275 25.55C47.125 26.75 46.4751 28.375 46.4751 30.05C46.4751 31.725 47.125 33.35 48.275 34.55C49.175 35.4 49.75 36.55 49.95 37.775C50.125 39.025 49.9001 40.275 49.2751 41.375C48.6501 42.45 47.7 43.3 46.55 43.775C45.4 44.25 44.15 44.3 42.95 43.95C41.35 43.55 39.6501 43.775 38.2001 44.625C36.7751 45.475 35.7 46.825 35.25 48.45C34.925 49.625 34.225 50.65 33.275 51.375C32.325 52.1 31.15 52.5 29.95 52.5C28.75 52.5 27.6001 52.1 26.6251 51.375C25.6751 50.65 24.975 49.625 24.65 48.45C24.2 46.825 23.125 45.475 21.7 44.625C20.275 43.8 18.5751 43.55 16.9501 43.95C15.7751 44.3 14.5 44.225 13.375 43.75C12.225 43.275 11.2751 42.425 10.6751 41.35C10.0751 40.275 9.82508 39 10.0251 37.775C10.2001 36.55 10.8 35.4 11.675 34.55C12.825 33.35 13.4751 31.725 13.4751 30.05C13.4751 28.375 12.825 26.75 11.675 25.55C10.775 24.7 10.2001 23.55 10.0251 22.325C9.85008 21.1 10.0751 19.825 10.6751 18.75C11.2751 17.675 12.225 16.825 13.375 16.35C14.525 15.875 15.7751 15.8 16.9501 16.15C18.5501 16.55 20.275 16.3 21.7 15.475C23.125 14.625 24.2 13.25 24.65 11.65C24.95 10.475 25.6501 9.425 26.6001 8.675C27.5501 7.925 28.75 7.52502 29.95 7.52502C31.15 7.52502 32.3501 7.925 33.3001 8.675C34.2501 9.425 34.95 10.475 35.25 11.65L35.3251 11.625Z" stroke="#D1292E" stroke-width="2" stroke-miterlimit="10" stroke-linecap="round"/>
</g>
<defs>
<clipPath id="clip0_0_168">
<rect width="60" height="60" fill="white"/>
</clipPath>
</defs>
</svg>
